<svg version="1.1" id="Layer_1" xmlns="http://www.w3.org/2000/svg" xmlns:xlink="http://www.w3.org/1999/xlink" x="0px" y="0px" viewBox="0 0 1361.14 765.64" style="enable-background:new 0 0 1361.14 765.64;" xml:space="preserve"><style type="text/css">
	.st0{fill:#1A1A1A;}
	.st1{opacity:0.1;}
	.st2{fill:none;stroke:#FFFFFF;stroke-width:2.2964;stroke-linecap:round;stroke-linejoin:round;stroke-miterlimit:10;}
	.st3{fill:none;stroke:#FFFFFF;stroke-width:2.2964;stroke-miterlimit:10;}
	.st4{fill:none;stroke:#FFFFFF;stroke-width:3.2332;stroke-miterlimit:10;}
	.st5{fill:none;stroke:#F19001;stroke-width:34;stroke-miterlimit:10;}
	.st6{fill:#F5EFDB;}
	.st7{fill:#F19001;}
</style><rect x="-1.28" y="-1.44" class="st0" width="1363.71" height="767.08"></rect><g class="st1"><path class="st2" d="M1364.03,6.13V-458.3h-182.01c-0.37-0.03-0.73-0.03-1.1,0H638.42c-0.33-0.03-0.66-0.03-0.98,0h-257.3
		c-0.33-0.02-0.65-0.03-0.97,0H158.76c-0.31-0.02-0.63-0.03-0.95,0H-2.93V765.51h1.98v0.13h289.44v-0.1h278.17v-0.03h366.52
		c0.1,0.01,0.2,0.03,0.3,0.03c0.1,0,0.2-0.02,0.3-0.03h430.24V483.77h0.04V26.63V14.56v-4.9C1364.07,8.48,1364.05,7.31,1364.03,6.13
		z M1352.05-60.68c-29.07-82.34-107.66-141.51-199.83-141.51c-96.15,0-177.53,64.39-203.32,152.31H753.56
		c-16.91,0-30.67-13.76-30.67-30.67c0-7.31-5.95-13.26-13.26-13.26c-7.31,0-13.26,5.95-13.26,13.26v9.61
		c0,11.61-9.45,21.06-21.06,21.06c-11.61,0-21.06-9.45-21.06-21.06v-2.39c0-11.29-9.19-20.48-20.48-20.48h-6.03v6.03
		c0,20.9-17,37.9-37.9,37.9h-60.82l654.21-396.44h168.84V-60.68z M1046.9,471.71h-11.05v-60.63h71.35v60.63H1046.9z M952.44,471.71
		v-60.63h71.35v60.63H952.44z M933.63,550.57l-66.8-66.8h73.55h64.55L933.63,550.57z M200.76-14.89c1.23,0,2.46-0.37,3.53-1.14
		c0.73-0.53,1.29-1.19,1.71-1.93c1.67-0.55,3.44-0.85,5.29-0.85c9.38,0,17.02,7.63,17.02,17.02v48.66h-34.04V-1.79
		c0-5.28,2.42-10,6.2-13.13C200.56-14.92,200.66-14.89,200.76-14.89z M189.23-17.46c-4.91-6.9-12.96-11.42-22.05-11.42
		c-9.09,0-17.14,4.52-22.05,11.42c-4.91-6.9-12.96-11.42-22.05-11.42s-17.14,4.52-22.05,11.42c-4.91-6.9-12.96-11.42-22.05-11.42
		s-17.14,4.52-22.05,11.42c-4.91-6.9-12.96-11.42-22.05-11.42c-9.08,0-17.12,4.51-22.03,11.39c-0.87-1.22-1.82-2.39-2.9-3.47
		c-0.28-0.28-0.6-0.53-0.89-0.81v-254.01l183.8,254.19C191.5-20.33,190.29-18.95,189.23-17.46z M150.16-1.79
		c0-9.38,7.63-17.02,17.02-17.02c9.38,0,17.02,7.63,17.02,17.02v48.66h-34.04V-1.79z M106.06-1.79c0-9.38,7.63-17.02,17.02-17.02
		c9.38,0,17.02,7.63,17.02,17.02v48.66h-34.04V-1.79z M61.95-1.79c0-9.38,7.63-17.02,17.02-17.02c9.38,0,17.02,7.63,17.02,17.02
		v48.66H61.95V-1.79z M17.85-1.83c0.02-9.37,7.65-16.98,17.02-16.98c9.38,0,17.02,7.63,17.02,17.02v48.66H17.86V-1.79
		C17.86-1.8,17.85-1.82,17.85-1.83z M17.86,56.94L17.86,56.94l34.03-0.01h10.07h34.04h10.07h34.04h10.07h34.04h10.07h34.04h10.07h38
		c0,0.48-0.04,0.95-0.04,1.43V87.8H9.04V56.94H17.86z M626.83-446.32L384.96-75.72c-29.23,6.19-55.03,21.73-74.15,43.33
		l73.96-413.93H626.83z M1159.94-446.32L505.71-49.88h-8.37c-23.21-18.04-52.33-28.83-83.94-28.83c-4.21,0-8.36,0.22-12.47,0.59
		l240.31-368.21H1159.94z M675.3-37.81c18.27,0,33.13-14.86,33.13-33.13v-9.61c0-0.66,0.54-1.2,1.2-1.2c0.66,0,1.2,0.54,1.2,1.2
		c0,23.57,19.17,42.74,42.74,42.74h192.18c-3.51,15.27-5.37,31.16-5.37,47.47v4.9v12.07v149.32v2.73H835.52v-72.9V51.01V14.56
		h-88.25v164.11h-28.86L668.64,26.06l-23.3,77.28L614.6,72.6c-2.36-2.36-6.18-2.36-8.53,0c-2.36,2.36-2.36,6.18,0,8.53l35.32,35.32
		l-6.95,23.06l-32.54-32.54c-2.36-2.36-6.18-2.36-8.53,0s-2.36,6.18,0,8.53l37.12,37.12l-7.85,26.05h-72.17V58.36
		c0-37.44-15.1-71.41-39.52-96.18h78.88c24.83,0,45.49-18.21,49.33-41.97c1.85,1.55,3.02,3.87,3.02,6.46v2.39
		C642.18-52.67,657.04-37.81,675.3-37.81z M1352.01,14.56H952.44v-4.9c0-110.16,89.62-199.78,199.79-199.78
		s199.79,89.62,199.79,199.78V14.56z M1099.68,142.67l-63.82,78.83V98.82C1064.04,101,1088.04,118.33,1099.68,142.67z
		 M1248.82,118.83l-24.04,39.73v-54.7C1233.71,107.37,1241.85,112.47,1248.82,118.83z M1222.32,396.25l-91.65-72.09h143.37v20.37
		L1222.32,396.25z M1107.21,236.81v64.12h-0.74l-36.07-32.72l34.62-31.41H1107.21z M1272.4,306.84h-41.58v-68.72h41.58V306.84z
		 M1218.76,236.81v70.04h-34.46v-70.04H1218.76z M1172.23,306.84h-21.76v-70.04h21.76V306.84z M1138.41,306.84h-16.51v-70.04h16.51
		V306.84z M1103.04,300.93h-67.19v-1.39l32.83-29.78L1103.04,300.93z M1035.85,296.44v-56.45l31.12,28.23L1035.85,296.44z
		 M1035.85,321.58l27.03,33.43l-27.03,32.56V321.58z M1044.43,313h52.52l0.49,0.38l-26.7,32.16L1044.43,313z M1184.3,224.74h-45.89
		h-19.14v-48.8c0-2.72,0.14-5.4,0.42-8.05l84.58,56.85H1184.3z M1068.68,266.66l-32.83-29.78v-0.08h65.74L1068.68,266.66z
		 M1023.79,300.93h-71.35v-64.12h71.35V300.93z M952.44,186.22l57.34,38.52h-57.34V186.22z M952.44,183.45v-7.51
		c0-3.7,0.28-7.33,0.78-10.9l58.35,58.13L952.44,183.45z M952.44,313h12.36v86.02h-12.36V313z M999.39,313h24.4v86.02h-24.4V313z
		 M1070.62,364.58l27.85,34.44h-56.44L1070.62,364.58z M1107.21,390.64l-28.73-35.52l28.45-34.27l0.28,0.22V390.64z M1119.27,330.55
		l89.68,70.53l-89.68,69.75V330.55z M1274.04,361.6v81.44l-40.72-40.72L1274.04,361.6z M1224.77,224.74v-1.81l49.27-41.97v43.78
		H1224.77z M1224.77,214.88v-19.31l42.3-51.67c4.07,8.92,6.5,18.74,6.9,29.07L1224.77,214.88z M1224.77,185.89v-15.49l28.52-47.12
		c4.13,4.44,7.73,9.35,10.74,14.66L1224.77,185.89z M1212.71,213.57l-56.87-102.6c-0.1-0.19-0.27-0.31-0.4-0.47
		c11.94-7.55,26.07-11.94,41.22-11.94c5.5,0,10.87,0.59,16.05,1.69V213.57z M1150.46,113.9c0.01,0.01,0.01,0.03,0.01,0.04
		l59.42,107.19l-89.19-59.95C1124.43,141.94,1135.31,125.21,1150.46,113.9z M1107.21,224.74h-71.02l64.55-79.73
		c4.15,9.48,6.47,19.94,6.47,30.93V224.74z M1023.79,224.74h-1.91l-2.45-125.47c1.44-0.19,2.89-0.35,4.36-0.46V224.74z
		 M1017.14,99.62l2.33,119.29l-24.09-112.23C1002.13,103.3,1009.45,100.89,1017.14,99.62z M993.26,107.76l23.95,111.6l-41.92-98.27
		C980.59,115.83,986.64,111.33,993.26,107.76z M973.56,122.89l41.54,97.38l-54.03-79.78C964.41,134.04,968.62,128.13,973.56,122.89z
		 M959.89,142.85l53.3,78.7l-59.52-59.29C954.9,155.44,957,148.92,959.89,142.85z M823.46,51.01h-64.13V26.63h64.13V51.01z
		 M759.33,105.77h64.13v70.47h-64.13V105.77z M823.46,93.71h-64.13V63.08h64.13V93.71z M669.1,66.36l35.83,109.88h-68.95
		L669.1,66.36z M415.72,753.48c-29.61-4.3-52.44-29.85-52.44-60.64V520.2l26.03,46.86c1,1.8,2.91,2.81,4.98,2.76
		c2.05-0.1,3.86-1.36,4.68-3.25l25.78-59.88l33.35,71.84c0.93,2,3.01,3.24,5.19,3.11c2.21-0.13,4.11-1.59,4.8-3.68l17.75-53.65
		v168.54c0,30.79-22.83,56.34-52.44,60.64H415.72z M485.58,490.81l-23.43,70.85l-32.7-70.42c-0.9-1.92-2.87-3.13-4.96-3.12
		c-2.12,0.03-4.03,1.31-4.87,3.25l-26.21,60.87l-30.8-55.45c-1.19-2.14-3.67-3.21-6.06-2.6c-2.38,0.62-4.03,2.76-4.03,5.21v193.43
		c0,25.43,13.25,47.81,33.21,60.64h-97.23V591.15h-0.1V487.27h200.66C487.46,487.84,486.15,489.1,485.58,490.81z M413.4-66.64
		c68.93,0,125,56.08,125,125v184.63c-61.12,21.2-106.08,71.29-121.7,132c-15.79-61.38-61.54-111.92-123.68-132.71
		c-0.02-0.01-0.05-0.02-0.07-0.03c-0.14-0.05-0.28-0.1-0.42-0.15c-0.07-0.02-0.14-0.03-0.21-0.05c-0.25-0.07-0.5-0.13-0.75-0.17
		c-0.19-0.03-0.38-0.05-0.57-0.06c-0.11-0.01-0.22-0.03-0.33-0.03h-0.03c-0.08,0-0.15,0.02-0.22,0.02
		c-0.22,0.01-0.44,0.03-0.65,0.07c-0.18,0.03-0.37,0.05-0.54,0.1c-0.19,0.05-0.38,0.11-0.57,0.18c-0.08,0.03-0.17,0.05-0.25,0.08
		V58.36C288.4-10.57,344.47-66.64,413.4-66.64z M410.67,471.71H288.4V253.42c0.02,0.01,0.05,0.01,0.07,0.02
		c0.09,0.04,0.17,0.09,0.27,0.12c72.93,24.18,121.94,92.09,121.94,168.99V471.71z M276.33,132.86L246.7,97.24h29.63V132.86z
		 M275.01,145.93l-31.86,39.06l-31.69-38.94l31.86-38.21L275.01,145.93z M203.88,140.49l-35.99-43.25h72.05L203.88,140.49z
		 M196.3,146.05l-31.86,39.06l-31.69-38.94l31.86-38.2L196.3,146.05z M125.17,140.61L89.08,97.24h72.26L125.17,140.61z
		 M117.6,146.17l-31.86,39.06l-31.69-38.94l31.86-38.2L117.6,146.17z M46.47,140.73L10.26,97.24h72.47L46.47,140.73z M9.04,110.44
		l29.85,35.84l-29.85,36.6V110.44z M46.47,151.83l35.57,43.7H10.82L46.47,151.83z M125.17,151.71l35.67,43.82H89.43L125.17,151.71z
		 M203.88,151.59l35.76,43.95h-71.6L203.88,151.59z M276.33,159.14v36.39h-29.68L276.33,159.14z M276.33,288.11l-48.23-58.11h48.23
		V288.11z M267.91,291.97h-65.5l17.97-57.27L267.91,291.97z M195.01,285.66l-33.75-55.67h51.22L195.01,285.66z M70.98,291.97
		l17.09-54.48l26.96,54.48H70.98z M188.37,291.97h-59.13l24.72-56.75L188.37,291.97z M122.07,286.03l-27.73-56.04h52.14
		L122.07,286.03z M63.58,285.66L29.8,229.99h51.25L63.58,285.66z M56.93,291.97H9.04v-25.81l13.46-30.94L56.93,291.97z
		 M20.51,586.77V462.58c12.59-1.72,22.33-12.52,22.33-25.57v-30.22c0-3.39-2.74-6.13-6.13-6.13c-3.39,0-6.13,2.74-6.13,6.13v30.22
		c0,6.27-4.28,11.55-10.07,13.1v-55.79c0-3.39-2.74-6.13-6.13-6.13c-2.31,0-4.29,1.29-5.34,3.17v-90.44h53.4l3.74,0.03l1.94-0.03
		h54.29v0h7.02h64.36l3.83,0.03l1.98-0.03h76.73v174.29v8.56v107.38h-81.45c0.02-0.02,0.04-0.04,0.05-0.06l34.81-52.54
		c0.72-1.09,0.67-2.52-0.12-3.56l-34.17-44.61c3.92-8.34-0.26-26.45-1.8-32.37c10.1-22.5-8.82-65.36-15.08-78.39l14.69-2.35
		c4.38-0.7,8.17-3.29,10.42-7.12c2.24-3.82,2.66-8.4,1.14-12.56l-5.11-13.98c-1.91-5.22-6.27-9.15-11.67-10.5l-30.66-7.67
		c-3.11-0.78-6.33,0.1-8.62,2.33c-2.29,2.24-3.24,5.44-2.54,8.56l22.61,100.94c0.32,1.44-0.02,2.92-0.94,4.07s-2.29,1.81-3.76,1.81
		H61.21c-10.27,0-18.63,8.36-18.63,18.63V589.4c0,0.67,0.26,1.25,0.62,1.75H18.66C19.8,590.04,20.51,588.49,20.51,586.77z
		 M142.24,724.5l-44.94-41.44l44.94-65.91V724.5z M182.97,589.4v-85.65l1.38-1.77l25.4,36.94l-23.92,39.03
		c-0.51,0.83-0.59,1.84-0.23,2.74l3.94,9.85c0.09,0.22,0.22,0.42,0.35,0.62h-7.54C182.71,590.65,182.97,590.06,182.97,589.4z
		 M54.88,589.47l1.79-80.29c0.06-2.97,2.53-5.38,5.5-5.38c1.49,0,2.88,0.58,3.92,1.64c1.04,1.06,1.6,2.46,1.58,3.95l-1.19,79.97
		c-0.01,0.66,0.24,1.27,0.62,1.8H54.27C54.62,590.67,54.87,590.11,54.88,589.47z M83.13,589.54l4.45-92.85l74.35,3.05l6.37,89.87
		c0.04,0.59,0.29,1.09,0.61,1.54h-86.4C82.85,590.69,83.1,590.16,83.13,589.54z M154.5,603.41h0.43l60.59,63.77
		c0.21,0.22,0.45,0.4,0.68,0.58l-61.7,74.7V603.41z M224.01,658.31l-52.16-54.9h97.5L224.01,658.31z M136.77,603.41l-48.63,71.32
		l-76.83-69.02v-2.3H136.77z M11.32,622.19l73.84,66.34l57.09,52.65v12.2H11.32V622.19z M276.23,614.33v139.05H161.39L276.23,614.33
		z M422.73,471.71v-49.17c0-74.66,46.22-140.82,115.67-166.74v215.9H422.73z M294.49-9.68c-4.95,8.61-9.02,17.79-12.02,27.44V-1.79
		c0-12.87-9.03-23.65-21.08-26.39l-95.53-418.14h206.65L294.49-9.68z M253.11-18.64c0.92,0.55,1.98,0.87,3.09,0.87
		c0.45,0,0.9-0.05,1.35-0.15c0.49-0.11,0.94-0.3,1.38-0.52c7.69,1.63,13.48,8.47,13.48,16.64v48.66h-34.04V-1.79
		C238.37-10.4,244.8-17.52,253.11-18.64z M276.33,204.98v16.06H9.04v-16.06H276.33z M9.04,229.99h5.98l-5.98,13.74V229.99z
		 M9.04,589.73c0.29,0.52,0.63,1.01,1.06,1.42H9.04V589.73z M554.6,753.48h-91.19c19.95-12.83,33.21-35.2,33.21-60.64V492.59
		c0-2.43-1.51-4.52-3.72-5.32h61.7V753.48z M550.47,471.71V257.05c67.61,26.75,112.37,92.02,112.37,165.49v49.17h-52.18H550.47z
		 M754.5,471.75c-0.15-0.01-0.3-0.04-0.45-0.04H674.9v-49.17c0-4.53-0.19-9.02-0.5-13.49v-24.96h80.09V471.75z M676.78,373.03
		l32.19-88.17l42.27,88.17H676.78z M674.9,483.77h63.04c-12.06,9.37-29,23.97-45.61,43.13l-49.48-43.13H674.9z M765.56,402.9v-29.87
		v-97.11l27.27,0.98L754.5,241v29.16c0,0.02,0,0.04,0,0.06v84l-46.91-97.84l-40.7,111.47c-16.88-56.41-59.37-102.76-116.42-123.71
		v-53.41h389.91v280.97H765.56V402.9z M1220.96,407.02l53.07,53.07v11.61h-136.24L1220.96,407.02z M1286.1,459.34
		c0.26-1,0.26-2.04,0-3.04V347.04c0-0.01,0-0.01,0-0.02v-28.11h0.22v-94.17h-0.22v-48.8c0-41.14-27.92-75.86-65.8-86.25
		c-0.13-0.04-0.26-0.08-0.39-0.11c-7.42-2-15.21-3.08-23.25-3.08c-37.96,0-70.45,23.78-83.42,57.22
		c-12.96-33.44-45.45-57.22-83.41-57.22c-33.02,0-61.89,17.99-77.39,44.67V26.63h399.57v445.08h-65.91V459.34z M153.48-446.32
		L249.04-28.1c-6.43,1.55-11.97,5.4-15.7,10.63c-4.91-6.9-12.96-11.42-22.05-11.42c-2.77,0-5.45,0.42-7.97,1.2L9.04-296.35v-149.97
		H153.48z M566.67,483.77h57.82l60.13,52.42C654.9,573.52,629,625.52,638.2,688.13c0.37,2.54,2.29,4.46,4.65,5
		c9.77,7.74,50.7,37.61,100.72,37.61c56.24,0,101.02-37.78,102.9-39.39c1.19-1.02,1.88-2.52,1.88-4.09s-0.69-3.07-1.88-4.09
		c-1.88-1.61-46.66-39.39-102.9-39.39c-42.73,0-78.82,21.8-94.53,32.98c-4.64-54.08,19.22-99.96,45.9-133.44c0.04,0,0.08,0,0.12,0
		c1.68,0,3.36-0.7,4.55-2.07c1.3-1.49,1.74-3.44,1.35-5.23c25.19-29.52,51.15-47.96,56.92-51.89c0.16-0.11,0.29-0.24,0.44-0.35
		h91.99c0.29,0.63,0.67,1.22,1.19,1.74l75.96,75.96v192.07H566.67V483.77z M652.96,687.25c13.09-9.59,48.95-32.7,90.61-32.7
		c41.57,0,77.49,23.12,90.6,32.72c-13.09,9.59-48.95,32.7-90.6,32.7C702,719.97,666.07,696.84,652.96,687.25z M1152.22,650.15
		c-67.18,0-125.25-37.37-146.44-52.87c21.2-15.51,79.27-52.87,146.44-52.87s125.24,37.37,146.44,52.87
		C1277.46,612.79,1219.4,650.15,1152.22,650.15z M1298.67,725.35c-9.36,6.85-25.91,17.94-47.24,28.19H1053
		c-21.33-10.27-37.88-21.36-47.23-28.19c21.18-15.51,79.14-52.87,146.45-52.87C1219.4,672.48,1277.46,709.84,1298.67,725.35z
		 M1352.05,753.54h-63.97c18.23-11.24,29.33-20.6,30.48-21.57c1.93-1.66,3.03-4.08,3.03-6.62c0-2.54-1.1-4.97-3.03-6.62
		c-2.44-2.09-49.55-41.79-115.04-57.42c65.48-15.62,112.59-55.33,115.03-57.42c1.93-1.65,3.04-4.07,3.04-6.61
		c0-2.54-1.11-4.96-3.04-6.61c-3.04-2.6-75.42-63.67-166.33-63.67s-163.29,61.07-166.33,63.67c-1.93,1.65-3.04,4.07-3.04,6.61
		c0,2.54,1.11,4.96,3.04,6.61c2.44,2.09,49.54,41.8,115.03,57.42c-65.47,15.63-112.58,55.33-115.02,57.42
		c-1.93,1.66-3.03,4.08-3.03,6.62c0,2.54,1.1,4.97,3.03,6.62c1.12,0.97,12.24,10.33,30.48,21.57h-76.85V561.58l81.05-75.94
		c0.58-0.55,1.03-1.19,1.34-1.87h24.99h60.31h12.06h166.83h65.95V753.54z"></path><path class="st3" d="M775.66,687.26c0-17.7-14.4-32.09-32.1-32.09c-17.7,0-32.09,14.4-32.09,32.09c0,17.7,14.4,32.1,32.09,32.1
		C761.27,719.35,775.66,704.96,775.66,687.26z M722.24,687.26c0-11.76,9.57-21.32,21.32-21.32c11.76,0,21.33,9.57,21.33,21.32
		c0,11.76-9.57,21.33-21.33,21.33C731.81,708.58,722.24,699.02,722.24,687.26z"></path><circle class="st3" cx="743.57" cy="687.26" r="9.41"></circle><path class="st3" d="M426.54,633.28c-21.25,0-38.54,17.29-38.54,38.54c0,21.25,17.29,38.54,38.54,38.54
		c21.25,0,38.55-17.29,38.55-38.54C465.08,650.57,447.79,633.28,426.54,633.28z M426.54,698.31c-14.6,0-26.48-11.88-26.48-26.48
		c0-14.6,11.88-26.48,26.48-26.48c14.6,0,26.48,11.88,26.48,26.48C453.02,686.43,441.14,698.31,426.54,698.31z"></path><path class="st3" d="M426.34,623.84c23.18,0,42.05,18.86,42.05,42.05c0,3.33,2.7,6.03,6.03,6.03s6.03-2.7,6.03-6.03
		c0-29.84-24.28-54.11-54.11-54.11c-29.84,0-54.11,24.28-54.11,54.11c0,3.33,2.7,6.03,6.03,6.03c3.33,0,6.03-2.7,6.03-6.03
		C384.29,642.7,403.15,623.84,426.34,623.84z"></path><path class="st3" d="M849.79,61.31l38.47-38.47l38.47,38.47c1.18,1.18,2.72,1.77,4.27,1.77c1.54,0,3.09-0.59,4.27-1.77
		c2.36-2.36,2.36-6.18,0-8.53l-47-47l-47,47c-2.36,2.36-2.36,6.18,0,8.53C843.61,63.67,847.43,63.67,849.79,61.31z"></path><path class="st3" d="M849.79,94.93l38.47-38.47l38.47,38.47c1.18,1.18,2.72,1.77,4.27,1.77c1.54,0,3.09-0.59,4.27-1.77
		c2.36-2.36,2.36-6.18,0-8.53l-47-47.01l-47,47.01c-2.36,2.36-2.36,6.18,0,8.53C843.61,97.29,847.43,97.29,849.79,94.93z"></path><path class="st3" d="M849.79,128.55l38.47-38.47l38.47,38.47c1.18,1.18,2.72,1.77,4.27,1.77c1.54,0,3.09-0.59,4.27-1.77
		c2.36-2.36,2.36-6.18,0-8.53l-47-47l-47,47c-2.36,2.36-2.36,6.18,0,8.53C843.61,130.91,847.43,130.91,849.79,128.55z"></path><path class="st3" d="M849.79,162.17l38.47-38.47l38.47,38.47c1.18,1.18,2.72,1.77,4.27,1.77c1.54,0,3.09-0.59,4.27-1.77
		c2.36-2.36,2.36-6.18,0-8.53l-47-47.01l-47,47.01c-2.36,2.36-2.36,6.18,0,8.53C843.61,164.53,847.43,164.53,849.79,162.17z"></path></g></svg>