<?xml version="1.0" encoding="utf-8"?>
<!-- Generator: Adobe Illustrator 26.0.0, SVG Export Plug-In . SVG Version: 6.00 Build 0)  -->
<svg version="1.1" id="Layer_1" xmlns="http://www.w3.org/2000/svg" xmlns:xlink="http://www.w3.org/1999/xlink" x="0px" y="0px"
	 viewBox="0 0 1080 1080" style="enable-background:new 0 0 1080 1080;" xml:space="preserve">
<style type="text/css">
	.st0{fill:#1D1D1B;}
	.st1{fill:#F19001;}
	.st2{fill:#333333;}
	.st3{fill:#FFFFFF;}
	.st4{fill:none;stroke:#F19001;stroke-miterlimit:10;}
	.st5{fill:none;stroke:#1D1D1B;stroke-miterlimit:10;}
</style>
<g>
	<g>
		<g>
			<g>
				<polygon class="st1" points="314.8,490.96 314.8,373.71 337.26,373.71 337.26,469.44 507.3,469.44 507.3,373.71 529.76,373.71 
					529.76,490.96 				"/>
			</g>
		</g>
		<g>
			<g>
				<polygon class="st1" points="314.8,507.18 314.8,624.42 337.26,624.42 337.26,528.7 507.3,528.7 507.3,624.42 529.76,624.42 
					529.76,507.18 				"/>
			</g>
		</g>
		<g>
			<g>
				<path class="st1" d="M620.79,373.58v250.85h-22.51V373.58H620.79z"/>
			</g>
			<g>
				<path class="st1" d="M1011.77,373.77v250.85h-22.51V373.77H1011.77z"/>
			</g>
		</g>
		<g>
			<g>
				<path class="st1" d="M261.89,602.06l-4.75,2.89c-21.91,13.22-46.42,19.92-72.86,19.92c-36.45,0-66.16-13.19-88.29-39.21
					C77.06,562.86,67.47,534.08,67.47,500c0-38.24,12.22-70.07,36.35-94.52c21.11-21.46,47.2-32.37,77.45-32.37
					c21.95,0,45.01,6.32,68.56,18.77l4.91,2.6l-10.81,20.63l-5.04-2.89c-19.51-11.2-39.59-16.88-59.64-16.88
					c-26.53,0-47.64,11.1-64.46,33.98c-14.98,19.76-22.55,44.05-22.55,72.19c0,32.47,9.91,58.39,29.45,77
					c16.97,16.01,38.85,24.13,65.13,24.13c17.42,0,37.19-5.87,58.75-17.45l4.68-2.53L261.89,602.06z"/>
			</g>
		</g>
		<g>
			<g>
				<path class="st1" d="M921.57,626.01h-29.61l-53-68.01c-5.09-6.33-10.27-13.24-15.74-20.54c-6.34-8.46-12.89-17.2-19.35-25.02
					h-0.92c-10.5,13.63-21.95,28.64-34.51,46.05l-51.7,67.52h-28.28L788.99,495.6L696.5,374.54h29.44l0.37,0.48l47.87,63.29
					c1.71,2.35,3.42,4.7,5.16,7.08c8.28,11.4,16.84,23.19,25.91,34.21h0.93c10.4-12.92,22.14-28.28,32.3-42.18l46.78-62.89h28.27
					L820,496.58L921.57,626.01z"/>
			</g>
		</g>
	</g>
	<g>
		<path class="st2" d="M68.04,647.48h45.83v11.29H97.33v46.64H84.57v-46.64H68.04V647.48z"/>
		<path class="st2" d="M147.74,705.41l25.04-57.94h10.56l25.2,57.94h-14.4l-4.99-12.28h-22.5l-4.83,12.28H147.74z M170.65,682.34
			h14.16l-7.12-18L170.65,682.34z"/>
		<path class="st2" d="M292.66,652.06l-8.76,9.58c-2.05-2.62-6.14-3.85-9.25-3.85c-3.52,0-8.59,1.64-8.59,5.97
			c0,5.07,6.14,6.14,12.52,8.1c6.96,2.13,14.16,5.48,14.16,15.96c0,13.17-10.56,19.07-22.34,19.07c-7.45,0-13.99-2.13-19.48-7.28
			l9.08-9.98c2.7,3.44,6.79,5.48,11.13,5.48c3.52,0,8.84-1.56,8.84-6.06c0-5.07-6.14-6.38-12.6-8.51
			c-7.12-2.29-14.57-5.56-14.57-15.71c0-12.36,10.8-18.82,22.09-18.82C281.37,646,287.67,647.72,292.66,652.06z"/>
		<path class="st2" d="M337.83,647.48h45.83v11.29h-16.53v46.64h-12.77v-46.64h-16.53V647.48z"/>
		<path class="st2" d="M439.39,647.48l12.27,21.69l13.01-21.69h15.14l-21.77,33.22v24.71h-12.77V680.7l-21.77-33.22H439.39z"/>
		<path class="st2" d="M637.83,654.51l-9.82,8.02c-2.78-3.35-6.63-4.75-10.96-4.75c-9.08,0-16.78,7.28-16.78,18.66
			c0,9.66,6.22,18.66,16.37,18.66c4.99,0,9.17-2.05,11.95-6.22l10.64,7.94c-4.58,6.71-13.01,10.07-20.95,10.07
			c-18.17,0-31.26-11.95-31.26-30.44c0-18.33,13.01-30.44,31.26-30.44C625.88,646,633.49,648.95,637.83,654.51z"/>
		<path class="st2" d="M699.86,647.48v35.27c0,6.87,4.91,12.36,11.7,12.36c6.06,0,11.62-4.83,11.62-12.36v-35.27h12.77v35.84
			c0,12.6-7.69,23.57-24.39,23.57c-16.69,0-24.47-10.96-24.47-23.57v-35.84H699.86z"/>
		<path class="st2" d="M810.74,647.48c10.23,0,20.7,2.54,20.7,14.73c0,6.46-4.01,10.88-9.98,12.77v0.16
			c6.79,0.82,12.68,5.89,12.68,14.16c0,12.11-11.46,16.12-21.69,16.12h-23.81v-57.94H810.74z M801.41,658.28v12.36h9.49
			c3.93,0,7.77-1.88,7.77-6.3c0-4.66-4.42-6.06-8.35-6.06H801.41z M801.41,694.61h11.7c4.17,0,8.26-2.13,8.26-6.79
			c0-5.32-5.81-6.38-9.98-6.38h-9.98V694.61z"/>
		<path class="st2" d="M883.08,647.48h39.36v11.78h-26.6v10.8h25.12v11.78h-25.12v11.78h28.07v11.78h-40.83V647.48z"/>
		<path class="st2" d="M1012.45,652.06l-8.76,9.58c-2.05-2.62-6.14-3.85-9.25-3.85c-3.52,0-8.59,1.64-8.59,5.97
			c0,5.07,6.14,6.14,12.52,8.1c6.96,2.13,14.16,5.48,14.16,15.96c0,13.17-10.56,19.07-22.34,19.07c-7.45,0-13.99-2.13-19.48-7.28
			l9.08-9.98c2.7,3.44,6.79,5.48,11.13,5.48c3.52,0,8.84-1.56,8.84-6.06c0-5.07-6.14-6.38-12.6-8.51
			c-7.12-2.29-14.57-5.56-14.57-15.71c0-12.36,10.8-18.82,22.1-18.82C1001.16,646,1007.46,647.72,1012.45,652.06z"/>
	</g>
</g>
</svg>
