<svg width="946" height="334" viewBox="0 0 946 334" fill="none" xmlns="http://www.w3.org/2000/svg">
<path d="M247.8 117.96V0.709991H270.26V96.44H440.3V0.709991H462.76V117.96H247.8Z" fill="#F19001"/>
<path d="M247.8 134.18V251.42H270.26V155.7H440.3V251.42H462.76V134.18H247.8Z" fill="#F19001"/>
<path d="M553.79 0.579987V251.43H531.28V0.579987H553.79Z" fill="#F19001"/>
<path d="M944.77 0.769989V251.62H922.26V0.769989H944.77Z" fill="#F19001"/>
<path d="M194.89 229.06L190.14 231.95C168.23 245.17 143.72 251.87 117.28 251.87C80.83 251.87 51.12 238.68 28.99 212.66C10.06 189.86 0.469971 161.08 0.469971 127C0.469971 88.76 12.69 56.93 36.82 32.48C57.93 11.02 84.02 0.109985 114.27 0.109985C136.22 0.109985 159.28 6.43001 182.83 18.88L187.74 21.48L176.93 42.11L171.89 39.22C152.38 28.02 132.3 22.34 112.25 22.34C85.72 22.34 64.61 33.44 47.79 56.32C32.81 76.08 25.24 100.37 25.24 128.51C25.24 160.98 35.15 186.9 54.69 205.51C71.66 221.52 93.54 229.64 119.82 229.64C137.24 229.64 157.01 223.77 178.57 212.19L183.25 209.66L194.89 229.06Z" fill="#F19001"/>
<path d="M854.57 253.01H824.96L771.96 185C766.87 178.67 761.69 171.76 756.22 164.46C749.88 156 743.33 147.26 736.87 139.44H735.95C725.45 153.07 714 168.08 701.44 185.49L649.74 253.01H621.46L721.99 122.6L629.5 1.54001H658.94L659.31 2.01999L707.18 65.31C708.89 67.66 710.6 70.01 712.34 72.39C720.62 83.79 729.18 95.58 738.25 106.6H739.18C749.58 93.68 761.32 78.32 771.48 64.42L818.26 1.53H846.53L753 123.58L854.57 253.01Z" fill="#F19001"/>
<path d="M1.03998 274.48H46.87V285.77H30.33V332.41H17.57V285.77H1.03998V274.48Z" fill="white"/>
<path d="M80.74 332.41L105.78 274.47H116.34L141.54 332.41H127.14L122.15 320.13H99.65L94.82 332.41H80.74V332.41ZM103.65 309.34H117.81L110.69 291.34L103.65 309.34Z" fill="white"/>
<path d="M225.66 279.06L216.9 288.64C214.85 286.02 210.76 284.79 207.65 284.79C204.13 284.79 199.06 286.43 199.06 290.76C199.06 295.83 205.2 296.9 211.58 298.86C218.54 300.99 225.74 304.34 225.74 314.82C225.74 327.99 215.18 333.89 203.4 333.89C195.95 333.89 189.41 331.76 183.92 326.61L193 316.63C195.7 320.07 199.79 322.11 204.13 322.11C207.65 322.11 212.97 320.55 212.97 316.05C212.97 310.98 206.83 309.67 200.37 307.54C193.25 305.25 185.8 301.98 185.8 291.83C185.8 279.47 196.6 273.01 207.89 273.01C214.37 273 220.67 274.72 225.66 279.06Z" fill="white"/>
<path d="M270.83 274.48H316.66V285.77H300.13V332.41H287.36V285.77H270.83V274.48V274.48Z" fill="white"/>
<path d="M372.39 274.48L384.66 296.17L397.67 274.48H412.81L391.04 307.7V332.41H378.27V307.7L356.5 274.48H372.39Z" fill="white"/>
<path d="M570.83 281.51L561.01 289.53C558.23 286.18 554.38 284.78 550.05 284.78C540.97 284.78 533.27 292.06 533.27 303.44C533.27 313.1 539.49 322.1 549.64 322.1C554.63 322.1 558.81 320.05 561.59 315.88L572.23 323.82C567.65 330.53 559.22 333.89 551.28 333.89C533.11 333.89 520.02 321.94 520.02 303.45C520.02 285.12 533.03 273.01 551.28 273.01C558.88 273 566.49 275.95 570.83 281.51Z" fill="white"/>
<path d="M632.86 274.48V309.75C632.86 316.62 637.77 322.11 644.56 322.11C650.62 322.11 656.18 317.28 656.18 309.75V274.48H668.95V310.32C668.95 322.92 661.26 333.89 644.56 333.89C627.87 333.89 620.09 322.93 620.09 310.32V274.48H632.86Z" fill="white"/>
<path d="M743.74 274.48C753.97 274.48 764.44 277.02 764.44 289.21C764.44 295.67 760.43 300.09 754.46 301.98V302.14C761.25 302.96 767.14 308.03 767.14 316.3C767.14 328.41 755.68 332.42 745.45 332.42H721.64V274.48H743.74ZM734.41 285.28V297.64H743.9C747.83 297.64 751.67 295.76 751.67 291.34C751.67 286.68 747.25 285.28 743.32 285.28H734.41V285.28ZM734.41 321.61H746.11C750.28 321.61 754.37 319.48 754.37 314.82C754.37 309.5 748.56 308.44 744.39 308.44H734.41V321.61Z" fill="white"/>
<path d="M816.08 274.48H855.44V286.26H828.84V297.06H853.96V308.84H828.84V320.62H856.91V332.4H816.08V274.48Z" fill="white"/>
<path d="M945.45 279.06L936.69 288.64C934.64 286.02 930.55 284.79 927.44 284.79C923.92 284.79 918.85 286.43 918.85 290.76C918.85 295.83 924.99 296.9 931.37 298.86C938.33 300.99 945.53 304.34 945.53 314.82C945.53 327.99 934.97 333.89 923.19 333.89C915.74 333.89 909.2 331.76 903.71 326.61L912.79 316.63C915.49 320.07 919.58 322.11 923.92 322.11C927.44 322.11 932.76 320.55 932.76 316.05C932.76 310.98 926.62 309.67 920.16 307.54C913.04 305.25 905.59 301.98 905.59 291.83C905.59 279.47 916.39 273.01 927.69 273.01C934.16 273 940.46 274.72 945.45 279.06Z" fill="white"/>
</svg>
