<?xml version="1.0" encoding="utf-8"?>
<!-- Generator: Adobe Illustrator 26.0.0, SVG Export Plug-In . SVG Version: 6.00 Build 0)  -->
<svg version="1.1" id="Layer_1" xmlns="http://www.w3.org/2000/svg" xmlns:xlink="http://www.w3.org/1999/xlink" x="0px" y="0px"
	 viewBox="0 0 1080 1080" style="enable-background:new 0 0 1080 1080;" xml:space="preserve">
<style type="text/css">
	.st0{fill:#1D1D1B;}
	.st1{fill:#F19001;}
	.st2{fill:#333333;}
	.st3{fill:#FFFFFF;}
	.st4{fill:none;stroke:#F19001;stroke-miterlimit:10;}
	.st5{fill:none;stroke:#1D1D1B;stroke-miterlimit:10;}
</style>
<g>
	<g>
		<g>
			<g>
				<polygon class="st1" points="352.09,898.1 352.09,800.11 370.86,800.11 370.86,880.12 512.99,880.12 512.99,800.11 
					531.76,800.11 531.76,898.1 				"/>
			</g>
		</g>
		<g>
			<g>
				<polygon class="st1" points="352.09,911.67 352.09,1009.66 370.86,1009.66 370.86,929.65 512.99,929.65 512.99,1009.66 
					531.76,1009.66 531.76,911.67 				"/>
			</g>
		</g>
		<g>
			<g>
				<path class="st1" d="M607.85,799.99v209.67h-18.82V799.99H607.85z"/>
			</g>
			<g>
				<path class="st1" d="M934.64,800.15v209.67h-18.82V800.15H934.64z"/>
			</g>
		</g>
		<g>
			<g>
				<path class="st1" d="M307.87,990.97l-3.97,2.41c-18.32,11.05-38.8,16.65-60.9,16.65c-30.46,0-55.3-11.02-73.8-32.77
					c-15.82-19.07-23.84-43.12-23.84-71.6c0-31.97,10.22-58.57,30.38-79c17.65-17.94,39.45-27.06,64.74-27.06
					c18.34,0,37.62,5.28,57.31,15.69l4.1,2.17l-9.04,17.24l-4.21-2.41c-16.3-9.36-33.09-14.11-49.85-14.11
					c-22.18,0-39.82,9.28-53.87,28.4c-12.52,16.52-18.85,36.82-18.85,60.34c0,27.14,8.29,48.81,24.62,64.36
					c14.19,13.38,32.47,20.17,54.44,20.17c14.56,0,31.08-4.91,49.1-14.59l3.92-2.12L307.87,990.97z"/>
			</g>
		</g>
		<g>
			<g>
				<path class="st1" d="M859.25,1010.99h-24.75l-44.3-56.84c-4.25-5.29-8.58-11.06-13.15-17.16c-5.3-7.07-10.77-14.37-16.17-20.92
					h-0.77c-8.77,11.39-18.34,23.94-28.85,38.49l-43.21,56.43h-23.64l84.02-109.01L671.13,800.8h24.61l0.31,0.4l40.01,52.9
					c1.43,1.96,2.86,3.93,4.31,5.92c6.92,9.53,14.07,19.38,21.66,28.6h0.78c8.69-10.8,18.5-23.64,27-35.26l39.1-52.56h23.63
					L774.35,902.8L859.25,1010.99z"/>
			</g>
		</g>
	</g>
	<g>
		<path class="st1" d="M934.57,336.74V69.03H829.66c-0.21-0.02-0.42-0.02-0.64,0H516.31c-0.19-0.02-0.38-0.02-0.57,0H367.43
			c-0.19-0.01-0.37-0.02-0.56,0H239.82c-0.18-0.01-0.36-0.02-0.55,0h-92.65v705.45h1.14v0.07H314.6v-0.06h160.35v-0.02h211.28
			c0.06,0,0.11,0.02,0.17,0.02s0.11-0.01,0.17-0.02h248V612.07h0.03V348.55v-6.96v-2.83C934.6,338.09,934.58,337.41,934.57,336.74z
			 M517.94,75.93h298.99L439.81,304.45h-4.82c-13.38-10.4-30.17-16.62-48.39-16.62c-2.42,0-4.82,0.13-7.19,0.34L517.94,75.93z
			 M537.57,311.41c10.53,0,19.1-8.57,19.1-19.1v-5.54c0-0.38,0.31-0.69,0.69-0.69c0.38,0,0.69,0.31,0.69,0.69
			c0,13.58,11.05,24.64,24.63,24.64h110.78c-2.02,8.8-3.09,17.96-3.09,27.37v2.83v6.96v86.07v1.57h-60.44v-42.02v-31.57V341.6
			h-50.87v94.6h-16.64l-28.68-87.97l-13.43,44.55l-17.72-17.72c-1.36-1.36-3.56-1.36-4.92,0s-1.36,3.56,0,4.92l20.36,20.36
			l-4.01,13.29l-18.76-18.76c-1.36-1.36-3.56-1.36-4.92,0c-1.36,1.36-1.36,3.56,0,4.92l21.4,21.4l-4.53,15.02h-41.6v-69.35
			c0-21.58-8.71-41.16-22.78-55.44h45.47c14.31,0,26.22-10.5,28.43-24.19c1.06,0.89,1.74,2.23,1.74,3.72v1.38
			C518.47,302.84,527.04,311.41,537.57,311.41z M583.22,472.13v16.81c0,0.01,0,0.02,0,0.03v48.42l-27.04-56.4l-23.46,64.26
			c-9.73-32.52-34.22-59.23-67.11-71.31v-30.79h224.76v161.96H589.6v-39.66v-17.22v-55.98l15.72,0.57L583.22,472.13z M537.34,605.11
			v-28.34c0-2.61-0.11-5.2-0.29-7.77v-14.39h46.17v50.53c-0.09-0.01-0.17-0.02-0.26-0.02H537.34z M573.68,612.07
			c-6.95,5.4-16.72,13.82-26.29,24.86l-28.52-24.86h18.47H573.68z M538.42,548.23l18.56-50.82l24.36,50.82H538.42z M514.9,434.8
			l19.1-63.34l20.65,63.34H514.9z M622.97,369.57v17.65h-36.97v-17.65H622.97z M586.01,362.61v-14.06h36.97v14.06H586.01z
			 M622.97,394.18v40.62h-36.97v-40.62H622.97z M388.5,549.36c-9.1-35.38-35.48-64.52-71.29-76.5c-0.01-0.01-0.03-0.01-0.04-0.02
			c-0.08-0.03-0.16-0.06-0.24-0.09c-0.04-0.01-0.08-0.02-0.12-0.03c-0.14-0.04-0.29-0.07-0.44-0.1c-0.11-0.02-0.22-0.03-0.33-0.03
			c-0.07,0-0.13-0.02-0.19-0.02h-0.02c-0.04,0-0.08,0.01-0.13,0.01c-0.13,0-0.25,0.02-0.37,0.04c-0.11,0.02-0.21,0.03-0.31,0.06
			c-0.11,0.03-0.22,0.06-0.33,0.1c-0.05,0.02-0.1,0.03-0.14,0.04V366.85c0-39.73,32.32-72.06,72.06-72.06
			c39.73,0,72.06,32.32,72.06,72.06v106.43C423.42,485.49,397.51,514.36,388.5,549.36z M458.65,480.66v124.45h-66.67v-28.34
			C391.98,533.74,418.62,495.6,458.65,480.66z M385.02,576.77v28.34h-70.48V479.28c0.01,0.01,0.03,0.01,0.04,0.01
			c0.05,0.02,0.1,0.05,0.15,0.07C356.78,493.3,385.02,532.45,385.02,576.77z M370.09,75.93h139.54L370.2,289.56
			c-16.85,3.57-31.72,12.53-42.74,24.98L370.09,75.93z M153.52,75.93h83.26l55.08,241.08c-3.71,0.9-6.9,3.11-9.05,6.13
			c-2.83-3.97-7.47-6.58-12.71-6.58c-1.6,0-3.14,0.24-4.59,0.69L153.52,162.38V75.93z M294.2,322.46c0.53,0.32,1.14,0.5,1.78,0.5
			c0.26,0,0.52-0.03,0.78-0.09c0.28-0.06,0.54-0.17,0.79-0.3c4.43,0.94,7.77,4.88,7.77,9.59v28.05h-19.62v-28.05
			C285.71,327.21,289.41,323.1,294.2,322.46z M279.9,332.17v28.05h-19.62v-28.05c0-3.04,1.39-5.77,3.57-7.57
			c0.06,0,0.11,0.02,0.17,0.02c0.71,0,1.42-0.21,2.04-0.66c0.42-0.3,0.74-0.69,0.98-1.11c0.96-0.31,1.98-0.49,3.05-0.49
			C275.5,322.36,279.9,326.76,279.9,332.17z M153.52,174.25l105.95,146.52c-0.77,0.72-1.47,1.51-2.08,2.37
			c-2.83-3.97-7.47-6.58-12.71-6.58s-9.88,2.61-12.71,6.58c-2.83-3.97-7.47-6.58-12.71-6.58s-9.88,2.61-12.71,6.58
			c-2.83-3.97-7.47-6.58-12.71-6.58s-9.88,2.61-12.71,6.58c-2.83-3.97-7.47-6.58-12.71-6.58c-5.24,0-9.87,2.6-12.7,6.57
			c-0.5-0.7-1.05-1.38-1.67-2c-0.16-0.16-0.34-0.31-0.51-0.46V174.25z M254.48,332.17v28.05h-19.62v-28.05
			c0-5.41,4.4-9.81,9.81-9.81C250.08,322.36,254.48,326.76,254.48,332.17z M229.06,332.17v28.05h-19.62v-28.05
			c0-5.41,4.4-9.81,9.81-9.81C224.66,322.36,229.06,326.76,229.06,332.17z M203.64,332.17v28.05h-19.62v-28.05
			c0-5.41,4.4-9.81,9.81-9.81C199.23,322.36,203.64,326.76,203.64,332.17z M158.59,332.15c0.01-5.4,4.41-9.79,9.81-9.79
			c5.41,0,9.81,4.4,9.81,9.81v28.05H158.6v-28.04C158.6,332.17,158.59,332.16,158.59,332.15z M153.52,396.87l17.21,20.66
			l-17.21,21.1V396.87z M270.2,417.39l18.36-22.02l18.27,21.95l-18.36,22.52L270.2,417.39z M286.44,445.92h-41.27l20.66-25.33
			L286.44,445.92z M265.83,414.19l-20.75-24.93h41.53L265.83,414.19z M261.46,417.39l-18.36,22.52l-18.27-22.45l18.36-22.02
			L261.46,417.39z M241.02,445.92h-41.16l20.6-25.26L241.02,445.92z M220.46,414.26l-20.8-25h41.65L220.46,414.26z M216.09,417.46
			l-18.36,22.52l-18.27-22.45l18.36-22.02L216.09,417.46z M195.59,445.92h-41.05l20.55-25.19L195.59,445.92z M175.09,414.33
			l-20.87-25.07h41.78L175.09,414.33z M153.52,465.78h3.45l-3.45,7.92V465.78z M153.52,486.63l7.76-17.83l19.85,32.71h-27.6V486.63z
			 M260.71,497.87l-19.46-32.09h29.52L260.71,497.87z M275.34,468.49l27.4,33.01h-37.76L275.34,468.49z M256.89,501.51H222.8
			l14.25-32.71L256.89,501.51z M218.67,498.08l-15.98-32.3h30.06L218.67,498.08z M214.61,501.51h-25.39l9.85-31.4L214.61,501.51z
			 M184.95,497.87l-19.47-32.09h29.54L184.95,497.87z M153.52,673.96v-0.82c0.17,0.3,0.37,0.58,0.61,0.82H153.52z M230.3,767.48
			h-75.47v-75.62l42.56,38.24l32.91,30.35V767.48z M186.95,673.96h-7.33c0.19-0.28,0.31-0.61,0.32-0.97l1.03-46.28
			c0.04-1.71,1.46-3.1,3.17-3.1c0.86,0,1.66,0.34,2.26,0.95c0.6,0.61,0.92,1.42,0.91,2.27l-0.68,46.1
			C186.62,673.3,186.74,673.66,186.95,673.96z M227.14,681.03l-28.03,41.11l-44.29-39.79v-1.33H227.14z M195.9,673.96
			c0.19-0.26,0.3-0.58,0.32-0.93l2.57-53.52l42.86,1.76l3.67,51.81c0.02,0.33,0.14,0.63,0.32,0.89H195.9z M230.3,750.83l-25.9-23.89
			l25.9-37.99V750.83z M237.36,681.03h0.25l34.92,36.76c0.12,0.13,0.26,0.23,0.39,0.33l-35.56,43.06V681.03z M255.28,667.93
			l2.27,5.68c0.05,0.13,0.12,0.24,0.2,0.36h-4.31c0.2-0.29,0.32-0.63,0.32-1.01v-49.37l0.8-1.02l14.64,21.3l-13.79,22.5
			C255.13,666.83,255.08,667.41,255.28,667.93z M303.57,681.03l-26.14,31.65l-30.07-31.65H303.57z M307.53,767.48h-66.2l66.2-80.15
			V767.48z M307.59,607.13v4.93v61.9h-46.95c0.01-0.01,0.02-0.02,0.03-0.03l20.07-30.29c0.42-0.63,0.39-1.45-0.07-2.05l-19.7-25.71
			c2.26-4.81-0.15-15.24-1.04-18.66c5.82-12.97-5.08-37.67-8.69-45.19l8.47-1.36c2.52-0.4,4.71-1.9,6.01-4.1
			c1.29-2.2,1.53-4.84,0.66-7.24l-2.94-8.06c-1.1-3.01-3.62-5.28-6.73-6.05l-17.67-4.42c-1.79-0.45-3.65,0.06-4.97,1.34
			c-1.32,1.29-1.87,3.13-1.46,4.93l13.04,58.19c0.19,0.83-0.01,1.68-0.54,2.35c-0.53,0.66-1.32,1.04-2.17,1.04h-59.33
			c-5.92,0-10.74,4.82-10.74,10.74v73.56c0,0.38,0.12,0.72,0.32,1.01h-14.11c0.66-0.64,1.07-1.53,1.07-2.52v-71.59
			c7.26-0.99,12.87-7.21,12.87-14.74v-17.42c0-1.95-1.58-3.53-3.53-3.53s-3.53,1.58-3.53,3.53v17.42c0,3.62-2.47,6.66-5.81,7.55
			v-32.16c0-1.95-1.58-3.53-3.53-3.53c-1.33,0-2.47,0.74-3.08,1.83v-52.13h30.77l2.17,0.02l1.12-0.02h31.29v0h4.05h37.1l2.21,0.02
			l1.14-0.02h44.23V607.13z M307.59,499.28l-27.8-33.5h27.8V499.28z M307.59,460.62H153.52v-9.26h154.07V460.62z M307.59,445.92
			h-17.11l17.11-20.98V445.92z M307.59,409.79l-17.08-20.53h17.08V409.79z M307.59,366.85v16.97H153.52v-17.79h5.08v-0.01h19.62h5.8
			h19.62h5.8h19.62h5.8h19.62h5.8h19.62h5.8h21.9C307.61,366.3,307.59,366.57,307.59,366.85z M298.98,316.96L243.91,75.93h119.12
			l-44.97,251.7c-2.85,4.96-5.2,10.25-6.93,15.82v-11.27C311.13,324.75,305.92,318.54,298.98,316.96z M314.6,767.54v-93.57h-0.06
			v-59.88h115.67c-0.92,0.33-1.68,1.05-2,2.04l-13.51,40.84l-18.85-40.59c-0.52-1.11-1.65-1.8-2.86-1.8
			c-1.22,0.02-2.32,0.75-2.81,1.88l-15.11,35.09l-17.76-31.96c-0.69-1.24-2.12-1.85-3.49-1.5c-1.37,0.36-2.33,1.59-2.33,3.01v111.5
			c0,14.66,7.64,27.56,19.14,34.95H314.6z M387.94,767.54c-17.07-2.48-30.23-17.2-30.23-34.95v-99.52l15.01,27.01
			c0.57,1.04,1.68,1.62,2.87,1.59c1.18-0.06,2.23-0.79,2.7-1.87l14.86-34.52l19.23,41.41c0.54,1.15,1.73,1.87,2.99,1.79
			c1.27-0.07,2.37-0.91,2.77-2.12l10.23-30.93v97.15c0,17.75-13.16,32.47-30.23,34.95H387.94z M467.99,767.54h-52.57
			c11.5-7.39,19.14-20.29,19.14-34.95V617.15c0-1.4-0.87-2.6-2.14-3.06h35.57V767.54z M465.61,605.11V481.38
			c38.97,15.42,64.77,53.04,64.77,95.4v28.34H500.3H465.61z M682.92,767.57H474.95v-155.5h33.33l34.66,30.21
			c-17.13,21.52-32.06,51.49-26.76,87.59c0.21,1.46,1.32,2.57,2.68,2.88c5.63,4.46,29.22,21.68,58.06,21.68
			c32.42,0,58.23-21.78,59.32-22.71c0.69-0.59,1.09-1.45,1.09-2.36s-0.4-1.77-1.09-2.36c-1.08-0.93-26.9-22.71-59.32-22.71
			c-24.63,0-45.44,12.57-54.49,19.01c-2.67-31.17,11.08-57.62,26.46-76.92c0.02,0,0.05,0,0.07,0c0.97,0,1.94-0.4,2.62-1.19
			c0.75-0.86,1-1.98,0.78-3.02c14.52-17.02,29.48-27.65,32.81-29.91c0.09-0.06,0.17-0.14,0.25-0.2h53.03c0.17,0.36,0.39,0.7,0.69,1
			l43.78,43.79V767.57z M524.69,729.36c7.55-5.53,28.22-18.85,52.23-18.85c23.96,0,44.67,13.33,52.23,18.86
			c-7.55,5.53-28.22,18.85-52.23,18.85C552.96,748.22,532.25,734.89,524.69,729.36z M686.48,650.57l-38.51-38.5h42.4h37.21
			L686.48,650.57z M927.64,348.55v256.56h-37.99v-7.13c0.15-0.58,0.15-1.18,0-1.75v-62.98c0,0,0-0.01,0-0.01v-16.21h0.13v-54.28
			h-0.13v-28.13c0-23.71-16.1-43.73-37.93-49.72c-0.08-0.02-0.15-0.05-0.23-0.06c-4.28-1.15-8.77-1.78-13.4-1.78
			c-21.88,0-40.61,13.71-48.08,32.98c-7.47-19.27-26.2-32.98-48.08-32.98c-19.03,0-35.67,10.37-44.61,25.75v-60.26H927.64z
			 M697.32,341.6v-2.83c0-63.5,51.66-115.16,115.16-115.16s115.16,51.66,115.16,115.16v2.83H697.32z M847.35,456.31l-32.78-59.14
			c-0.06-0.11-0.13-0.2-0.2-0.29c6.88-4.34,15.01-6.86,23.73-6.86c3.17,0,6.27,0.34,9.25,0.97V456.31z M850.83,469.71v40.37h-19.86
			v-40.37H850.83z M845.72,460.67l-51.41-34.56c2.15-11.09,8.42-20.74,17.15-27.26c0,0.01,0.01,0.01,0.01,0.02L845.72,460.67z
			 M842.48,462.75h-11.51h-26.45h-11.03v-28.13c0-1.57,0.08-3.11,0.24-4.64L842.48,462.75z M824.02,469.71v40.37h-12.55v-40.37
			H824.02z M804.52,469.71v40.37H795v-40.37H804.52z M845.18,564.4l-51.69,40.2v-80.86L845.18,564.4z M852.11,567.83l30.59,30.59
			v6.69h-78.54L852.11,567.83z M859.23,565.11l23.47-23.47v46.95L859.23,565.11z M852.89,561.62l-52.83-41.55h82.64v11.74
			L852.89,561.62z M857.79,510.08v-39.61h23.97v39.61H857.79z M854.3,462.75v-1.04l28.4-24.19v25.23H854.3z M870.74,404.27
			c2.38,2.56,4.46,5.39,6.19,8.45l-22.63,27.64v-8.93L870.74,404.27z M854.3,424.61v-31.53c5.15,2.02,9.84,4.96,13.86,8.63
			L854.3,424.61z M878.68,416.16c2.35,5.14,3.75,10.8,3.98,16.76l-28.36,24.15v-11.13L878.68,416.16z M763.34,487.81l-17.94,16.27
			v-32.54L763.34,487.81z M745.4,469.75v-0.04h37.9l-18.97,17.21L745.4,469.75z M764.33,488.71l19.81,17.97H745.4v-0.8
			L764.33,488.71z M750.35,513.63h30.28l0.28,0.22l-15.39,18.54L750.35,513.63z M781.5,563.21h-32.53l16.48-19.85L781.5,563.21z
			 M760.98,537.84l-15.58,18.77v-38.04L760.98,537.84z M786.53,570.17v34.95h-34.76h-6.37v-34.95H786.53z M769.97,537.9l16.4-19.75
			l0.16,0.13v40.1L769.97,537.9z M786.11,506.67l-20.79-18.86l19.96-18.1h1.26v36.96H786.11z M745.59,462.75l37.21-45.96
			c2.39,5.46,3.73,11.49,3.73,17.83v28.13H745.59z M745.4,460.89v-70.72c16.25,1.26,30.08,11.25,36.79,25.28L745.4,460.89z
			 M702.3,414.19c1.92-3.72,4.35-7.13,7.2-10.15l23.94,56.13L702.3,414.19z M732.34,460.91l-34.31-34.18
			c0.7-3.93,1.92-7.68,3.58-11.19L732.34,460.91z M710.49,403.01c3.05-3.03,6.54-5.63,10.36-7.68l13.81,64.33L710.49,403.01z
			 M722.07,394.7c3.89-1.94,8.11-3.33,12.54-4.07l1.34,68.76L722.07,394.7z M735.94,390.43c0.83-0.11,1.67-0.2,2.51-0.27v72.59h-1.1
			L735.94,390.43z M697.77,428.34l33.64,33.51l-34.09-22.9v-4.33C697.32,432.49,697.48,430.4,697.77,428.34z M730.37,462.75h-33.05
			v-22.2L730.37,462.75z M738.45,469.71v36.96h-41.13v-36.96H738.45z M738.45,513.63v49.58h-14.07v-49.58H738.45z M704.44,513.63
			v49.58h-7.12v-49.58H704.44z M738.45,570.17v34.95h-41.13v-34.95H738.45z M755.28,767.57c-12.29-5.92-21.83-12.31-27.23-16.25
			c12.21-8.94,45.62-30.48,84.42-30.48c38.73,0,72.19,21.54,84.42,30.48c-5.39,3.95-14.94,10.34-27.23,16.25H755.28z M728.07,677.5
			c12.22-8.94,45.69-30.48,84.41-30.48s72.19,21.54,84.41,30.48c-12.22,8.94-45.69,30.48-84.41,30.48
			C773.76,707.97,740.29,686.43,728.07,677.5z M927.67,767.57h-36.88c10.51-6.48,16.91-11.88,17.57-12.43
			c1.11-0.95,1.75-2.35,1.75-3.82c0-1.47-0.64-2.86-1.75-3.82c-1.41-1.2-28.55-24.08-66.29-33.09c37.74-9.01,64.88-31.9,66.28-33.1
			c1.11-0.95,1.75-2.34,1.75-3.81s-0.64-2.86-1.75-3.81c-1.75-1.5-43.47-36.7-95.88-36.7s-94.13,35.2-95.88,36.7
			c-1.11,0.95-1.75,2.34-1.75,3.81s0.64,2.86,1.75,3.81c1.4,1.2,28.54,24.1,66.28,33.1c-37.73,9.01-64.87,31.89-66.28,33.09
			c-1.11,0.95-1.75,2.35-1.75,3.82c0,1.47,0.64,2.86,1.75,3.82c0.65,0.56,7.06,5.95,17.57,12.43h-44.3V656.92l46.72-43.77
			c0.34-0.32,0.59-0.68,0.78-1.08h14.4h34.76h6.95h96.17h38.02V767.57z M927.67,298.23c-16.76-47.47-62.06-81.57-115.19-81.57
			c-55.42,0-102.33,37.12-117.2,87.8h-112.6c-9.75,0-17.68-7.93-17.68-17.68c0-4.22-3.43-7.64-7.64-7.64
			c-4.22,0-7.64,3.43-7.64,7.64v5.54c0,6.69-5.45,12.14-12.14,12.14c-6.69,0-12.14-5.45-12.14-12.14v-1.38
			c0-6.51-5.3-11.81-11.81-11.81h-3.48v3.48c0,12.05-9.8,21.85-21.85,21.85h-35.06L830.35,75.93h97.32V298.23z"/>
		<path class="st1" d="M595.42,729.36c0-10.2-8.3-18.5-18.5-18.5c-10.2,0-18.5,8.3-18.5,18.5c0,10.2,8.3,18.5,18.5,18.5
			C587.12,747.86,595.42,739.56,595.42,729.36z M564.63,729.36c0-6.78,5.51-12.29,12.29-12.29c6.78,0,12.29,5.51,12.29,12.29
			c0,6.78-5.51,12.29-12.29,12.29C570.14,741.66,564.63,736.14,564.63,729.36z"/>
		<circle class="st1" cx="576.92" cy="729.36" r="5.43"/>
		<path class="st1" d="M394.17,698.25c-12.25,0-22.22,9.97-22.22,22.22c0,12.25,9.97,22.22,22.22,22.22
			c12.25,0,22.22-9.97,22.22-22.22C416.39,708.22,406.42,698.25,394.17,698.25z M394.17,735.73c-8.42,0-15.26-6.85-15.26-15.26
			c0-8.42,6.85-15.26,15.26-15.26c8.42,0,15.26,6.85,15.26,15.26C409.44,728.88,402.59,735.73,394.17,735.73z"/>
		<path class="st1" d="M394.06,692.81c13.36,0,24.24,10.87,24.24,24.24c0,1.92,1.56,3.48,3.48,3.48s3.48-1.56,3.48-3.48
			c0-17.2-13.99-31.19-31.19-31.19c-17.2,0-31.19,13.99-31.19,31.19c0,1.92,1.56,3.48,3.48,3.48s3.48-1.56,3.48-3.48
			C369.82,703.68,380.69,692.81,394.06,692.81z"/>
		<path class="st1" d="M638.15,368.55l22.18-22.18l22.18,22.18c0.68,0.68,1.57,1.02,2.46,1.02s1.78-0.34,2.46-1.02
			c1.36-1.36,1.36-3.56,0-4.92l-27.09-27.09l-27.09,27.09c-1.36,1.36-1.36,3.56,0,4.92C634.59,369.91,636.79,369.91,638.15,368.55z"
			/>
		<path class="st1" d="M638.15,387.93l22.18-22.18l22.18,22.18c0.68,0.68,1.57,1.02,2.46,1.02s1.78-0.34,2.46-1.02
			c1.36-1.36,1.36-3.56,0-4.92l-27.09-27.1l-27.09,27.1c-1.36,1.36-1.36,3.56,0,4.92C634.59,389.29,636.79,389.29,638.15,387.93z"/>
		<path class="st1" d="M638.15,407.31l22.18-22.18l22.18,22.18c0.68,0.68,1.57,1.02,2.46,1.02s1.78-0.34,2.46-1.02
			c1.36-1.36,1.36-3.56,0-4.92l-27.09-27.09l-27.09,27.09c-1.36,1.36-1.36,3.56,0,4.92C634.59,408.66,636.79,408.66,638.15,407.31z"
			/>
		<path class="st1" d="M638.15,426.69l22.18-22.18l22.18,22.18c0.68,0.68,1.57,1.02,2.46,1.02s1.78-0.34,2.46-1.02
			c1.36-1.36,1.36-3.56,0-4.92l-27.09-27.1l-27.09,27.1c-1.36,1.36-1.36,3.56,0,4.92C634.59,428.04,636.79,428.04,638.15,426.69z"/>
	</g>
</g>
</svg>
